<svg id="Layer_1" data-name="Layer 1" xmlns="http://www.w3.org/2000/svg" viewBox="0 0 137.02 134.17"><defs><style>.cls-1{fill:none;stroke:#ef4623;stroke-linecap:round;stroke-linejoin:round;stroke-width:1.5px;}</style></defs><line class="cls-1" x1="39.55" y1="71.41" x2="39.55" y2="59.15"/><path class="cls-1" d="M50.13,88.66H41.65a2.1,2.1,0,0,1-2.1-2.1V80.92"/><line class="cls-1" x1="86.78" y1="88.66" x2="61.54" y2="88.66"/><path class="cls-1" d="M39.55,49.87V47.23a2.1,2.1,0,0,1,2.09-2.11h39a2.1,2.1,0,0,1,2.1,2.11V67.08a8.55,8.55,0,0,0,8.55,8.55h17.51v7.06a6,6,0,0,1-6,6H98.18"/><path class="cls-1" d="M82.71,52.71c12.43.49,26.06,10.57,26.06,22.92"/><path class="cls-1" d="M61.54,88.66a5.71,5.71,0,1,0-5.71,5.7A5.71,5.71,0,0,0,61.54,88.66Z"/><path class="cls-1" d="M98.19,88.66a5.71,5.71,0,1,0-5.71,5.7A5.71,5.71,0,0,0,98.19,88.66Z"/><path class="cls-1" d="M101.44,79.7v.15a2.29,2.29,0,0,0,2.29,2.29h1"/><line class="cls-1" x1="57.28" y1="54.32" x2="28.77" y2="54.32"/><line class="cls-1" x1="63.98" y1="65.48" x2="46.12" y2="65.48"/><line class="cls-1" x1="60.63" y1="75.9" x2="33.84" y2="75.9"/></svg>