<svg id="Layer_1" data-name="Layer 1" xmlns="http://www.w3.org/2000/svg" viewBox="0 0 137.02 134.17"><defs><style>.cls-1{fill:none;stroke:#ef4623;stroke-linecap:round;stroke-linejoin:round;stroke-width:1.5px;}</style></defs><rect class="cls-1" x="74.52" y="45.46" width="30.94" height="30.94" transform="translate(-16.58 39.64) rotate(-22.8)"/><polyline class="cls-1" points="75.61 85.5 55.63 37.91 37.54 35.99"/><line class="cls-1" x1="109.83" y1="77.3" x2="82.5" y2="88.79"/><circle class="cls-1" cx="76.85" cy="91.78" r="6.4"/><path class="cls-1" d="M78.68,91.78a1.83,1.83,0,1,0-1.83,1.83A1.83,1.83,0,0,0,78.68,91.78Z"/><line class="cls-1" x1="73.17" y1="60.44" x2="101.55" y2="48.51"/><line class="cls-1" x1="50.81" y1="52.94" x2="30.24" y2="52.94"/><line class="cls-1" x1="55.37" y1="66.65" x2="43.19" y2="66.65"/><line class="cls-1" x1="53.09" y1="79.44" x2="34.81" y2="79.44"/><rect class="cls-1" x="67.01" y="38.93" width="11.9" height="11.9" transform="translate(-11.69 31.78) rotate(-22.8)"/><rect class="cls-1" x="79.88" y="40.49" width="6.29" height="6.29" transform="translate(-10.42 35.58) rotate(-22.8)"/></svg>