<?xml version="1.0" encoding="UTF-8"?><svg id="Layer_1" xmlns="http://www.w3.org/2000/svg" viewBox="0 0 95.16 82.45"><defs><style>.cls-1{fill:none;stroke:#ef4423;stroke-linecap:round;stroke-linejoin:round;stroke-width:1.5px;}</style></defs><line class="cls-1" x1="13.95" y1="44.91" x2="13.95" y2="30.89"/><path class="cls-1" d="M26.06,64.64h-9.7c-1.33,0-2.41-1.08-2.41-2.41v-6.44"/><line class="cls-1" x1="67.98" y1="64.64" x2="39.1" y2="64.64"/><path class="cls-1" d="M13.95,20.28v-3.02c0-1.33,1.07-2.41,2.4-2.41H60.92c1.33,0,2.4,1.08,2.4,2.41v22.7c0,5.4,4.38,9.78,9.78,9.78h20.03v8.07c0,3.77-3.06,6.83-6.83,6.83h-5.28"/><path class="cls-1" d="M63.32,23.52c14.21,.56,29.81,12.09,29.81,26.22"/><circle class="cls-1" cx="32.58" cy="64.64" r="6.52"/><circle class="cls-1" cx="74.5" cy="64.64" r="6.52"/><path class="cls-1" d="M84.75,54.4v.18c0,1.45,1.17,2.62,2.62,2.62h1.11"/><line class="cls-1" x1="34.24" y1="25.36" x2="1.63" y2="25.36"/><line class="cls-1" x1="41.9" y1="38.13" x2="21.47" y2="38.13"/><line class="cls-1" x1="38.07" y1="50.05" x2="7.42" y2="50.05"/></svg>