<?xml version="1.0" encoding="UTF-8"?><svg id="Layer_1" xmlns="http://www.w3.org/2000/svg" viewBox="0 0 94.37 96.2"><defs><style>.cls-1{fill:#fff;}.cls-2{stroke:#ed1b31;}.cls-2,.cls-3{fill:none;stroke-linecap:round;stroke-linejoin:round;stroke-width:1.5px;}.cls-3{stroke:#ef4423;}</style></defs><path class="cls-2" d="M58.65,42.47c-.32-.1-.64-.18-.96-.27l-9.53,9.28-9.7-9.53c-.31,.09-.6,.19-.89,.29l-18.14,4.77,28.81,9.42,28.81-9.42-18.41-4.54Z"/><line class="cls-3" x1="60.57" y1="23.64" x2="60.57" y2="2.55"/><line class="cls-3" x1="47.83" y1="28.6" x2="47.83" y2="15.38"/><line class="cls-3" x1="35.94" y1="26.12" x2="35.94" y2="6.3"/><path class="cls-2" d="M19.44,47.01l-6.74,5.42c-.69,.55-.53,1.64,.29,1.96l25.85,9.25,9.42-7.31-28.82-9.31Z"/><path class="cls-2" d="M19.44,56.99v24.16c0,1.14,.7,2.15,1.76,2.56l24.53,9.34c.88,.33,1.85,.33,2.73,0l26.36-10.09c1.35-.52,2.24-1.81,2.24-3.26v-22.71"/><path class="cls-2" d="M48.26,56.33l28.81-9.31,6.96,5.24c.82,.6,.65,1.88-.31,2.24l-26.68,9.15-8.77-7.31Z"/><line class="cls-2" x1="48.25" y1="56.44" x2="48.25" y2="93.13"/><polygon class="cls-1" points="66.9 49.19 48.58 53.9 30.26 49.19 30.26 37.62 66.9 37.62 66.9 49.19"/><polygon class="cls-2" points="30.18 33.8 30.18 50.49 48.25 56.44 66.9 50.3 66.9 33.8 30.18 33.8"/></svg>