<?xml version="1.0" encoding="UTF-8"?><svg id="Layer_1" xmlns="http://www.w3.org/2000/svg" viewBox="0 0 96.34 82.45"><defs><style>.cls-1{fill:none;stroke:#ef4423;stroke-linecap:round;stroke-linejoin:round;stroke-width:1.5px;}</style></defs><rect class="cls-1" x="52.82" y="19.33" width="35.39" height="35.39" transform="translate(-8.84 30.22) rotate(-22.8)"/><polyline class="cls-1" points="54.07 65.13 31.22 10.69 10.52 8.5"/><line class="cls-1" x1="93.21" y1="55.75" x2="61.95" y2="68.89"/><circle class="cls-1" cx="55.49" cy="72.31" r="7.32"/><path class="cls-1" d="M57.58,72.31c0-1.16-.94-2.09-2.09-2.09s-2.09,.94-2.09,2.09,.94,2.09,2.09,2.09,2.09-.94,2.09-2.09Z"/><line class="cls-1" x1="51.27" y1="36.46" x2="83.74" y2="22.82"/><line class="cls-1" x1="25.69" y1="27.89" x2="2.18" y2="27.89"/><line class="cls-1" x1="30.92" y1="43.57" x2="16.98" y2="43.57"/><line class="cls-1" x1="28.31" y1="58.2" x2="7.4" y2="58.2"/><rect class="cls-1" x="44.23" y="11.86" width="13.61" height="13.61" transform="translate(-3.24 21.23) rotate(-22.8)"/><rect class="cls-1" x="58.95" y="13.64" width="7.19" height="7.19" transform="translate(-1.79 25.59) rotate(-22.8)"/></svg>