<svg id="Layer_1" data-name="Layer 1" xmlns="http://www.w3.org/2000/svg" viewBox="0 0 300 300"><defs><style>.cls-1{fill:#231f20;}.cls-2{fill:#253955;}.cls-3{fill:#ef4523;}</style></defs><path class="cls-1" d="M16.85,207h6.38L32.28,232H25.76l-1.48-4.53H15.51L14.08,232H7.83Zm6,16.1L21,217c-.42-1.3-1-3.54-1-3.54H19.9s-.6,2.24-1,3.54L17,223.06Z"/><path class="cls-1" d="M34.3,214.08h5.47v2.56h.11a6,6,0,0,1,5.43-3.09,5.4,5.4,0,0,1,5.06,3.16h.07a6.37,6.37,0,0,1,5.64-3.16c4.07,0,6.11,2.77,6.11,6.81V232H56.47V221.37c0-1.92-.81-3.05-2.53-3.05S51.1,219.83,51.1,222V232H45.38V221.37c0-1.92-.8-3.05-2.52-3.05S40,219.83,40,222V232H34.3Z"/><path class="cls-1" d="M64.8,223c0-5.36,3.75-9.47,9.22-9.47a8.8,8.8,0,0,1,6.14,2.25c2.14,2,3.19,5.08,3.16,8.73H70.41c.35,2.42,1.68,3.93,4,3.93a3,3,0,0,0,3-1.79H83a7.31,7.31,0,0,1-3,4.25,9.54,9.54,0,0,1-5.62,1.65C68.44,232.57,64.8,228.46,64.8,223Zm12.73-1.89c-.21-2.14-1.54-3.51-3.4-3.51-2.18,0-3.3,1.37-3.69,3.51Z"/><path class="cls-1" d="M86,214.08h5.47v2.8h.1c1.27-2.13,2.74-3.08,4.92-3.08a2.92,2.92,0,0,1,1.12.14v4.91h-.14c-3.51-.49-5.76,1.23-5.76,5.12V232H86Z"/><path class="cls-1" d="M99.72,207h5.72v4.63H99.72Zm0,7.12h5.72v18H99.72Z"/><path class="cls-1" d="M108.14,223.09c0-5.4,3.72-9.5,9.41-9.5,4.87,0,8,2.84,8.52,6.87h-5.51a3,3,0,0,0-2.94-2.66c-2.46,0-3.69,2-3.69,5.29s1.23,5.23,3.69,5.23c1.78,0,2.87-1,3.12-3.09h5.47c-.14,4.14-3.44,7.37-8.52,7.37A9.13,9.13,0,0,1,108.14,223.09Z"/><path class="cls-1" d="M127.94,227c0-4,3.16-5.15,6.87-5.65,3.37-.42,4.57-.77,4.57-2s-.74-1.92-2.46-1.92-2.74.8-2.91,2.31h-5.26c.14-3.33,2.7-6.17,8.13-6.17,2.71,0,4.53.49,5.83,1.47a6,6,0,0,1,2.28,5.12v9c0,1.44.14,2.25.63,2.56V232h-5.54a5,5,0,0,1-.6-2h-.07c-1,1.51-2.63,2.46-5.33,2.46C130.5,232.5,127.94,230.57,127.94,227Zm11.58-1.4v-2.14a13.65,13.65,0,0,1-3,1c-2.21.49-3.12,1-3.12,2.42s1.05,2,2.45,2C138,228.85,139.52,227.55,139.52,225.62Z"/><path class="cls-1" d="M148.53,214.08H154v2.45h.1a6.31,6.31,0,0,1,5.55-3c3.93,0,6.24,2.81,6.24,6.81V232h-5.72V221.51c0-1.89-.94-3.19-2.8-3.19s-3.16,1.58-3.16,3.79V232h-5.72Z"/><path class="cls-1" d="M176.06,207h18.67v5.22H182.27v5.09h10.42v5H182.27V232h-6.21Z"/><path class="cls-1" d="M196.26,214.08h5.47v2.8h.11c1.26-2.13,2.73-3.08,4.91-3.08a2.89,2.89,0,0,1,1.12.14v4.91h-.14c-3.51-.49-5.75,1.23-5.75,5.12V232h-5.72Z"/><path class="cls-1" d="M209.31,223c0-5.36,3.75-9.47,9.23-9.47a8.82,8.82,0,0,1,6.14,2.25c2.14,2,3.19,5.08,3.15,8.73H214.92c.35,2.42,1.69,3.93,4,3.93a3,3,0,0,0,3-1.79h5.58a7.33,7.33,0,0,1-3,4.25,9.51,9.51,0,0,1-5.61,1.65C213,232.57,209.31,228.46,209.31,223ZM222,221.13c-.21-2.14-1.54-3.51-3.4-3.51-2.17,0-3.3,1.37-3.68,3.51Z"/><path class="cls-1" d="M230.53,207h5.72v4.63h-5.72Zm0,7.12h5.72v18h-5.72Z"/><path class="cls-1" d="M239.34,232.46h5.54c.32.95,1.27,1.75,3.16,1.75,2.42,0,3.44-1.26,3.44-3.43V229h-.14a5.73,5.73,0,0,1-4.6,2.07c-4,0-7.78-3-7.78-8.53,0-5.26,3.08-9,7.54-9a5.76,5.76,0,0,1,5.05,2.46h.07v-1.93h5.47v16.21a7.72,7.72,0,0,1-2.38,6,9.84,9.84,0,0,1-6.6,2C243.17,238.25,239.9,236.21,239.34,232.46Zm12.38-10.14c0-2.42-1.26-4.45-3.64-4.45-2.14,0-3.55,1.75-3.55,4.49s1.41,4.45,3.55,4.45C250.57,226.81,251.72,224.85,251.72,222.32Z"/><path class="cls-1" d="M260.65,207h5.71v9.33h.11a6.16,6.16,0,0,1,5.33-2.74c3.93,0,6.24,2.81,6.24,6.81V232h-5.71V221.51c0-1.89-.95-3.19-2.81-3.19s-3.16,1.58-3.16,3.79V232h-5.71Z"/><path class="cls-1" d="M282.34,227.3v-9.64H280v-3.58h2.39V208.4h5.57v5.68h3.27v3.58h-3.27v8.42c0,1.4.78,1.75,2,1.75.49,0,1.06,0,1.27,0V232a13.32,13.32,0,0,1-3.13.28C284.72,232.25,282.34,231.16,282.34,227.3Z"/><path class="cls-1" d="M87.4,257.14h6.25c.28,2.53,1.93,3.58,4.91,3.58,2,0,4-.74,4-2.63s-2-2.42-5.47-3.27c-4.35-1-9-2.35-9-7.61s4.35-7.72,10-7.72c5.43,0,9.64,2.46,9.89,7.72H102c-.24-1.93-1.72-3-4-3s-3.62.95-3.62,2.35c0,1.76,1.93,2.18,5.69,3,4.66,1.09,8.87,2.53,8.87,7.9s-4.49,8.17-10.28,8.17C91.93,265.63,87.54,262.68,87.4,257.14Z"/><path class="cls-1" d="M110.88,256c0-5.37,3.75-9.48,9.22-9.48a8.85,8.85,0,0,1,6.14,2.25c2.14,2,3.2,5.09,3.16,8.74H116.49c.35,2.42,1.68,3.92,4,3.92a3,3,0,0,0,3-1.78h5.57a7.27,7.27,0,0,1-3,4.24,9.54,9.54,0,0,1-5.62,1.65C114.53,265.56,110.88,261.45,110.88,256Zm12.73-1.9c-.21-2.14-1.54-3.51-3.4-3.51-2.18,0-3.3,1.37-3.68,3.51Z"/><path class="cls-1" d="M132.06,247.07h5.47v2.81h.11c1.26-2.14,2.73-3.09,4.91-3.09a3.1,3.1,0,0,1,1.12.14v4.91h-.14c-3.51-.49-5.75,1.23-5.75,5.12V265h-5.72Z"/><path class="cls-1" d="M145.12,247.07H151l2.46,8.1c.52,1.79,1,3.62,1,3.62h.07s.45-1.83,1-3.62l2.49-8.1h5.72l-6.21,18h-6.17Z"/><path class="cls-1" d="M165.59,240h5.72v4.63h-5.72Zm0,7.12h5.72v18h-5.72Z"/><path class="cls-1" d="M174,256.09c0-5.41,3.72-9.51,9.4-9.51,4.88,0,8,2.84,8.53,6.88h-5.51a3,3,0,0,0-3-2.67c-2.45,0-3.68,2-3.68,5.3s1.23,5.22,3.68,5.22c1.79,0,2.88-1.05,3.13-3.08h5.47c-.14,4.14-3.44,7.36-8.53,7.36A9.12,9.12,0,0,1,174,256.09Z"/><path class="cls-1" d="M193.79,256c0-5.37,3.75-9.48,9.22-9.48a8.85,8.85,0,0,1,6.14,2.25c2.14,2,3.19,5.09,3.16,8.74H199.4c.35,2.42,1.68,3.92,4,3.92a3,3,0,0,0,3-1.78H212a7.32,7.32,0,0,1-3,4.24,9.54,9.54,0,0,1-5.62,1.65C197.43,265.56,193.79,261.45,193.79,256Zm12.73-1.9c-.21-2.14-1.54-3.51-3.4-3.51-2.18,0-3.3,1.37-3.69,3.51Z"/><polygon class="cls-2" points="125.71 89.14 126.55 87.28 140.76 55.94 193.25 56.15 171.73 24.44 118.56 24.23 44.34 175.7 82.01 175.7 110.86 117.23 111.22 117.23 157.66 117.01 125.63 89.36 125.71 89.14"/><polygon class="cls-3" points="208.92 88.9 172.25 88.9 203.17 144.35 128.12 144.35 112.67 177.17 256.24 177.17 208.92 88.9"/></svg>