<svg id="Layer_1" data-name="Layer 1" xmlns="http://www.w3.org/2000/svg" viewBox="0 0 139.88 135.12"><defs><style>.cls-1{fill:#fff;}.cls-2{fill:#253955;}.cls-3{fill:#ef4523;}</style></defs><path class="cls-1" d="M12.39,92.73H15.1l3.84,10.64H16.17l-.63-1.92H11.83l-.62,1.92H8.57Zm2.54,6.83L14.13,97c-.18-.55-.42-1.5-.42-1.5h0s-.25,1-.43,1.5l-.81,2.58Z"/><path class="cls-1" d="M19.87,95.75h2.32v1.08h0a2.57,2.57,0,0,1,2.31-1.31,2.29,2.29,0,0,1,2.14,1.34h0a2.72,2.72,0,0,1,2.4-1.34c1.72,0,2.59,1.18,2.59,2.89v5H29.27V98.84c0-.82-.34-1.29-1.07-1.29S27,98.19,27,99.1v4.27H24.57V98.84c0-.82-.34-1.29-1.07-1.29s-1.21.64-1.21,1.55v4.27H19.87Z"/><path class="cls-1" d="M32.87,99.54a3.85,3.85,0,0,1,3.92-4,3.72,3.72,0,0,1,2.6,1,4.84,4.84,0,0,1,1.34,3.7H35.25A1.69,1.69,0,0,0,37,101.85a1.27,1.27,0,0,0,1.27-.76h2.36a3.07,3.07,0,0,1-1.27,1.8,4,4,0,0,1-2.38.7A3.86,3.86,0,0,1,32.87,99.54Zm5.4-.8a1.47,1.47,0,0,0-1.44-1.49c-.92,0-1.4.58-1.56,1.49Z"/><path class="cls-1" d="M41.92,95.75h2.32v1.19h0a2.24,2.24,0,0,1,2.08-1.31,1.21,1.21,0,0,1,.48.06v2.08h-.06a1.94,1.94,0,0,0-2.44,2.17v3.43H41.92Z"/><path class="cls-1" d="M47.83,92.73h2.42v2H47.83Zm0,3h2.42v7.62H47.83Z"/><path class="cls-1" d="M51.47,99.57a3.84,3.84,0,0,1,4-4,3.35,3.35,0,0,1,3.62,2.92H56.73a1.25,1.25,0,0,0-1.25-1.13c-1,0-1.56.86-1.56,2.24s.52,2.22,1.56,2.22c.76,0,1.22-.45,1.33-1.31h2.32a3.32,3.32,0,0,1-3.62,3.12A3.87,3.87,0,0,1,51.47,99.57Z"/><path class="cls-1" d="M59.93,101.24c0-1.68,1.34-2.19,2.92-2.4,1.43-.18,1.93-.32,1.93-.85s-.31-.81-1-.81-1.16.34-1.23,1H60.27c.06-1.41,1.15-2.62,3.46-2.62a4,4,0,0,1,2.47.63,2.52,2.52,0,0,1,1,2.17v3.84c0,.61.06.95.27,1.08v.11H65.08a2.21,2.21,0,0,1-.25-.85h0a2.51,2.51,0,0,1-2.26,1A2.31,2.31,0,0,1,59.93,101.24Zm4.91-.6v-.9a6.14,6.14,0,0,1-1.25.4c-.94.2-1.32.44-1.32,1s.44.85,1,.85A1.38,1.38,0,0,0,64.84,100.64Z"/><path class="cls-1" d="M68.73,95.75h2.34v1h0a2.68,2.68,0,0,1,2.35-1.27,2.6,2.6,0,0,1,2.65,2.89v5H73.69V98.9c0-.8-.4-1.35-1.19-1.35s-1.34.67-1.34,1.61v4.21H68.73Z"/><path class="cls-1" d="M80.42,92.73h7.91v2.21H83.05V97.1h4.42v2.13H83.05v4.14H80.42Z"/><path class="cls-1" d="M89.07,95.75H91.4v1.19h0a2.25,2.25,0,0,1,2.08-1.31,1.19,1.19,0,0,1,.48.06v2.08h-.06a1.94,1.94,0,0,0-2.44,2.17v3.43H89.07Z"/><path class="cls-1" d="M94.68,99.54a3.84,3.84,0,0,1,3.91-4,3.75,3.75,0,0,1,2.61,1,4.84,4.84,0,0,1,1.34,3.7H97.06a1.69,1.69,0,0,0,1.71,1.67,1.27,1.27,0,0,0,1.27-.76h2.36a3.09,3.09,0,0,1-1.28,1.8,4,4,0,0,1-2.38.7A3.85,3.85,0,0,1,94.68,99.54Zm5.4-.8a1.47,1.47,0,0,0-1.44-1.49c-.92,0-1.4.58-1.56,1.49Z"/><path class="cls-1" d="M103.75,92.73h2.43v2h-2.43Zm0,3h2.43v7.62h-2.43Z"/><path class="cls-1" d="M107.55,103.54h2.35c.14.41.54.75,1.34.75a1.29,1.29,0,0,0,1.46-1.46v-.76h-.06a2.4,2.4,0,0,1-2,.88,3.33,3.33,0,0,1-3.3-3.62c0-2.23,1.31-3.81,3.2-3.81a2.44,2.44,0,0,1,2.14,1h0v-.82h2.32v6.87a3.26,3.26,0,0,1-1,2.53,4.15,4.15,0,0,1-2.8.85C109.18,106,107.79,105.14,107.55,103.54Zm5.26-4.3c0-1-.54-1.89-1.55-1.89s-1.5.75-1.5,1.91.59,1.89,1.5,1.89S112.81,100.32,112.81,99.24Z"/><path class="cls-1" d="M116.66,92.73h2.42v4h0A2.69,2.69,0,0,1,124,98.41v5h-2.43V98.9c0-.8-.4-1.35-1.19-1.35a1.43,1.43,0,0,0-1.34,1.61v4.21h-2.42Z"/><path class="cls-1" d="M125.94,101.36V97.27h-1V95.75h1V93.34h2.36v2.41h1.39v1.52H128.3v3.57c0,.59.33.74.85.74h.54v1.77a6.42,6.42,0,0,1-1.33.11C127,103.45,125.94,103,125.94,101.36Z"/><path class="cls-1" d="M42.58,114h2.65c.12,1.07.81,1.52,2.08,1.52.86,0,1.71-.32,1.71-1.12s-.86-1-2.32-1.38c-1.85-.43-3.79-1-3.79-3.23s1.84-3.27,4.22-3.27,4.09,1,4.2,3.27H48.75c-.1-.82-.73-1.28-1.71-1.28s-1.53.4-1.53,1,.82.92,2.41,1.28c2,.46,3.76,1.07,3.76,3.34s-1.9,3.47-4.36,3.47C44.5,117.62,42.64,116.37,42.58,114Z"/><path class="cls-1" d="M52.61,113.54a3.83,3.83,0,0,1,3.91-4,3.74,3.74,0,0,1,2.61,1,4.85,4.85,0,0,1,1.33,3.7H55a1.69,1.69,0,0,0,1.71,1.67,1.27,1.27,0,0,0,1.27-.76h2.36a3.09,3.09,0,0,1-1.28,1.8,4,4,0,0,1-2.38.7A3.85,3.85,0,0,1,52.61,113.54Zm5.4-.8a1.47,1.47,0,0,0-1.44-1.49c-.92,0-1.4.58-1.57,1.49Z"/><path class="cls-1" d="M61.66,109.75H64v1.19h0a2.26,2.26,0,0,1,2.09-1.31,1.13,1.13,0,0,1,.47.06v2.08h-.06a1.94,1.94,0,0,0-2.44,2.17v3.43H61.66Z"/><path class="cls-1" d="M67.26,109.75h2.5l1,3.44c.22.75.42,1.53.42,1.53h0s.19-.78.41-1.53l1.06-3.44h2.43l-2.64,7.62H69.89Z"/><path class="cls-1" d="M76,106.73h2.42v2H76Zm0,3h2.42v7.62H76Z"/><path class="cls-1" d="M79.66,113.57a3.84,3.84,0,0,1,4-4,3.36,3.36,0,0,1,3.62,2.92H84.92a1.25,1.25,0,0,0-1.25-1.13c-1,0-1.56.86-1.56,2.24s.52,2.22,1.56,2.22c.76,0,1.22-.45,1.33-1.31h2.32a3.31,3.31,0,0,1-3.62,3.12A3.87,3.87,0,0,1,79.66,113.57Z"/><path class="cls-1" d="M88.11,113.54a3.84,3.84,0,0,1,3.92-4,3.72,3.72,0,0,1,2.6,1,4.85,4.85,0,0,1,1.34,3.7H90.49a1.69,1.69,0,0,0,1.72,1.67,1.26,1.26,0,0,0,1.26-.76h2.36a3.07,3.07,0,0,1-1.27,1.8,4,4,0,0,1-2.38.7A3.86,3.86,0,0,1,88.11,113.54Zm5.4-.8a1.47,1.47,0,0,0-1.44-1.49c-.92,0-1.4.58-1.56,1.49Z"/><polygon class="cls-2" points="59.03 42.73 59.39 41.94 65.42 28.64 87.69 28.73 78.56 15.27 56 15.18 24.5 79.46 40.49 79.46 52.73 54.65 52.88 54.65 72.59 54.55 58.99 42.82 59.03 42.73"/><polygon class="cls-3" points="94.34 42.63 78.78 42.63 91.9 66.16 60.05 66.16 53.49 80.08 114.42 80.08 94.34 42.63"/></svg>