<svg id="Layer_1" data-name="Layer 1" xmlns="http://www.w3.org/2000/svg" viewBox="0 0 137.02 134.17"><defs><style>.cls-1{fill:none;stroke:#fff;stroke-linecap:round;stroke-linejoin:round;stroke-width:1.5px;}</style></defs><rect class="cls-1" x="75.26" y="45.45" width="30.94" height="30.94" transform="translate(-16.52 39.92) rotate(-22.8)"/><polyline class="cls-1" points="76.35 85.49 56.37 37.9 38.28 35.98"/><line class="cls-1" x1="110.57" y1="77.29" x2="83.24" y2="88.78"/><circle class="cls-1" cx="77.59" cy="91.77" r="6.4"/><path class="cls-1" d="M79.41,91.77a1.83,1.83,0,1,0-1.82,1.83A1.82,1.82,0,0,0,79.41,91.77Z"/><line class="cls-1" x1="73.9" y1="60.43" x2="102.28" y2="48.5"/><line class="cls-1" x1="51.54" y1="52.93" x2="30.98" y2="52.93"/><line class="cls-1" x1="56.11" y1="66.64" x2="43.93" y2="66.64"/><line class="cls-1" x1="53.83" y1="79.43" x2="35.55" y2="79.43"/><rect class="cls-1" x="67.74" y="38.92" width="11.9" height="11.9" transform="translate(-11.63 32.07) rotate(-22.8)"/><rect class="cls-1" x="80.61" y="40.48" width="6.29" height="6.29" transform="translate(-10.36 35.87) rotate(-22.8)"/></svg>