<svg id="Layer_1" data-name="Layer 1" xmlns="http://www.w3.org/2000/svg" viewBox="0 0 137.02 134.17"><defs><style>.cls-1{fill:none;stroke:#fff;stroke-linecap:round;stroke-linejoin:round;stroke-width:1.5px;}</style></defs><line class="cls-1" x1="39.71" y1="68.75" x2="39.71" y2="56.49"/><path class="cls-1" d="M50.3,86H41.81a2.1,2.1,0,0,1-2.1-2.1V78.26"/><line class="cls-1" x1="86.94" y1="85.99" x2="61.7" y2="85.99"/><path class="cls-1" d="M39.71,47.21V44.56a2.09,2.09,0,0,1,2.09-2.1h39a2.09,2.09,0,0,1,2.09,2.1V64.41A8.55,8.55,0,0,0,91.42,73h17.51V80a6,6,0,0,1-6,6H98.35"/><path class="cls-1" d="M82.87,50c12.43.5,26.06,10.57,26.06,22.92"/><path class="cls-1" d="M61.7,86a5.7,5.7,0,1,0-5.7,5.7A5.7,5.7,0,0,0,61.7,86Z"/><path class="cls-1" d="M98.35,86a5.71,5.71,0,1,0-5.7,5.7A5.71,5.71,0,0,0,98.35,86Z"/><path class="cls-1" d="M101.6,77v.15a2.3,2.3,0,0,0,2.3,2.29h1"/><line class="cls-1" x1="57.44" y1="51.65" x2="28.93" y2="51.65"/><line class="cls-1" x1="64.14" y1="62.82" x2="46.28" y2="62.82"/><line class="cls-1" x1="60.79" y1="73.24" x2="34" y2="73.24"/></svg>